<?xml version="1.0" encoding="UTF-8"?><svg id="Camada_2" xmlns="http://www.w3.org/2000/svg" viewBox="0 0 48 48"><defs><style>.cls-1{fill:#fff;}.cls-2{fill:#9b1a17;}.cls-3{fill:#1d1d1b;}</style></defs><g id="Camada_1-2"><g><circle class="cls-1" cx="24" cy="24" r="24"/><g><path class="cls-3" d="M42.95,20.56c0,3.36-.82,5.82-2.47,7.38-1.65,1.56-4.26,2.33-7.83,2.33h-1.72v-5.1h2.09c1.62,0,2.77-.36,3.45-1.09,.68-.73,1.02-1.94,1.02-3.63s-.34-2.94-1.02-3.64c-.68-.7-1.83-1.05-3.45-1.05h-2.09v-5.02h1.36c3.85,0,6.59,.78,8.22,2.33,1.63,1.56,2.44,4.05,2.44,7.49Z"/><path class="cls-2" d="M14.66,37.26V15.38h5.46v21.89h-5.46Z"/><path class="cls-2" d="M24.48,10.74v26.53h5.46V10.74h-5.46Z"/><path class="cls-2" d="M5.05,37.26v-15.17h5.46v15.17H5.05Z"/></g></g></g></svg>